<?xml version="1.0" encoding="UTF-8" ?><svg xmlns="http://www.w3.org/2000/svg" width="171" height="142"><linearGradient x1="87.101639" y1="121.69753" x2="87.260849" y2="1.2385538" id="l1" gradientUnits="userSpaceOnUse"><stop style="stop-color:#e92203;stop-opacity:1" offset="0"/><stop style="stop-color:#ff0000;stop-opacity:0.64628822" offset="1" /></linearGradient><path d="M18.424098,139.26722C15.155145,138.47085 7.2640632,124.84511 4.5656227,112.61351C1.8671822,100.38191 2.2461527,99.07289 2.2191007,86.12868C2.1802857,67.55631 3.2858497,62.18808 10.045041,48.128676C20.573482,26.229068 40.593136,9.717295 64.185661,3.474675C73.740957,0.946329 92.812677,0.46842 102.18566,2.522452C128.21827,8.227336 150.0367,25.791852 161.257,50.076704C166.65762,61.76565 168.73114,70.035995 168.08501,86.62868C167.45501,102.92624 167.35652,109.96044 165.41884,116.24951C163.44768,122.64725 159.80872,136.72859 155.80765,138.55687C151.75054,140.41077 87.282122,139.39359 87.282122,139.39359C50.772061,139.32979 21.69305,140.0636 18.424098,139.26722zM149.32327,127.86337C153.34664,125.26501 157.88525,103.62991 157.97349,86.62868C158.04912,72.05454 156.57209,65.15007 150.80704,53.12868C143.23243,37.333933 132.67592,26.655589 117.10502,19.037695C106.24899,13.726496 97.318967,11.663403 85.185657,11.663403C73.476997,11.663403 64.652651,13.603677 54.451569,18.421131C38.270605,26.06258 27.239047,36.798962 19.679936,52.26236C13.775136,64.3416 12.300092,71.01529 12.305181,85.62868C12.311462,103.66291 16.021034,122.8212 20.343658,127.14382C21.625799,128.42596 30.453932,128.62659 85.007087,128.61337C119.7553,128.60495 148.69758,128.26745 149.32327,127.86337zM25.185661,113.05796L25.103845,101.43966C26.244929,101.43966 31.911336,101.43966 31.825385,101.43966C41.171971,77.738911 59.133,29.833527 59.277976,29.762011C59.084045,29.979402 86.13659,76.41817 86.037057,76.36655C85.945021,76.327242 110.72493,29.698676 110.73083,29.651802C110.80477,29.656931 137.77298,101.5908 137.79161,101.43966C138.63705,101.67809 140.80343,101.43966 145.54006,101.43966C145.43633,101.57797 145.59773,112.91965 145.59773,113.05796L115.58167,113.26229C115.70811,113.02543 115.3956,102.20524 115.3156,102.06834C115.41934,102.06834 119.1914,101.95833 119.1914,101.95833C119.27685,101.99319 108.08851,66.932655 108.09331,66.93123C98.504735,81.004867 86.388633,113.08 86.737287,113.05796C86.7799,113.27143 65.184651,67.966868 65.035497,67.91196C65.159104,67.941303 50.697272,101.3158 50.808165,101.43966C50.808165,101.43966 54.357087,101.43966 54.357087,101.43966L54.357087,113.05796L25.185661,113.05796z" style="fill:url(#l1);fill-opacity:1"/></svg>
