<?xml version="1.0" encoding="UTF-8" standalone="no"?>
<!-- Created with Inkscape (http://www.inkscape.org/) -->

<svg
   xmlns:dc="http://purl.org/dc/elements/1.1/"
   xmlns:cc="http://creativecommons.org/ns#"
   xmlns:rdf="http://www.w3.org/1999/02/22-rdf-syntax-ns#"
   xmlns:svg="http://www.w3.org/2000/svg"
   xmlns="http://www.w3.org/2000/svg"
   xmlns:sodipodi="http://sodipodi.sourceforge.net/DTD/sodipodi-0.dtd"
   xmlns:inkscape="http://www.inkscape.org/namespaces/inkscape"
   width="118.92981"
   height="118.93"
   id="svg16398"
   sodipodi:version="0.32"
   inkscape:version="0.48.5 r10040"
   version="1.0"
   sodipodi:docname="Ligne1_marseille.svg"
   inkscape:output_extension="org.inkscape.output.svg.inkscape">
  <defs
     id="defs16400">
    <inkscape:perspective
       sodipodi:type="inkscape:persp3d"
       inkscape:vp_x="0 : 526.18109 : 1"
       inkscape:vp_y="0 : 1000 : 0"
       inkscape:vp_z="744.09448 : 526.18109 : 1"
       inkscape:persp3d-origin="372.04724 : 350.78739 : 1"
       id="perspective16406" />
  </defs>
  <sodipodi:namedview
     id="base"
     pagecolor="#ffffff"
     bordercolor="#666666"
     borderopacity="1.0"
     inkscape:pageopacity="0.0"
     inkscape:pageshadow="2"
     inkscape:zoom="2.8"
     inkscape:cx="64.1525"
     inkscape:cy="41.43312"
     inkscape:document-units="px"
     inkscape:current-layer="layer1"
     showgrid="false"
     inkscape:window-width="1366"
     inkscape:window-height="716"
     inkscape:window-x="-8"
     inkscape:window-y="-8"
     fit-margin-top="0"
     fit-margin-left="0"
     fit-margin-right="0"
     fit-margin-bottom="0"
     inkscape:window-maximized="0" />
  <metadata
     id="metadata16403">
    <rdf:RDF>
      <cc:Work
         rdf:about="">
        <dc:format>image/svg+xml</dc:format>
        <dc:type
           rdf:resource="http://purl.org/dc/dcmitype/StillImage" />
        <dc:title></dc:title>
      </cc:Work>
    </rdf:RDF>
  </metadata>
  <g
     inkscape:label="Calque 1"
     inkscape:groupmode="layer"
     id="layer1"
     transform="translate(-519.14595,-127.93104)">
    <path
       d="m 593.55009,367.30747 -21.27035,0 0,-77.86495 c -7.7522,7.04796 -16.91215,12.27769 -27.44126,15.65172 l 0,-18.74458 c 5.53453,-1.76199 11.55117,-5.11726 18.06919,-10.02834 6.49874,-4.92982 10.95337,-10.68441 13.38316,-17.24501 l 17.25926,0 0,108.23116 z"
       style="fill:#ffffff;fill-opacity:1;fill-rule:nonzero;stroke:none"
       id="path16593"
       inkscape:connector-curvature="0" />
    <path
       id="path7544"
       style="fill:#1a171b;fill-opacity:1;fill-rule:nonzero;stroke:none"
       d="m 519.14595,246.86104 118.92981,0 0,-118.93 -118.92981,0 0,118.93 z"
       inkscape:connector-curvature="0" />
    <g
       transform="matrix(6.5172131,0,0,-6.5172131,527.29638,205.82589)"
       id="g7552">
      <path
         id="path7554"
         style="fill:#ffffff;fill-opacity:1;fill-rule:nonzero;stroke:none"
         d="m 0,0 0,5.751 1.303,0 0.783,-3.923 0.774,3.923 1.306,0 0,-5.751 -0.809,0 0,4.527 L 2.5,0 1.662,0 0.809,4.527 0.809,0 0,0 z"
         inkscape:connector-curvature="0" />
    </g>
    <g
       transform="matrix(6.5172131,0,0,-6.5172131,566.04643,175.34942)"
       id="g7556">
      <path
         id="path7558"
         style="fill:#ffffff;fill-opacity:1;fill-rule:nonzero;stroke:none"
         d="m 0,0 0.406,1.173 0.927,0 L 0.523,0 0,0 z m 1.056,-2.236 c -0.006,0.319 -0.068,0.561 -0.185,0.728 -0.118,0.166 -0.261,0.249 -0.43,0.249 -0.18,0 -0.329,-0.088 -0.447,-0.263 -0.118,-0.175 -0.176,-0.414 -0.174,-0.714 l 1.236,0 z M 1.009,-3.35 1.833,-3.535 C 1.727,-3.938 1.56,-4.244 1.331,-4.455 1.103,-4.665 0.817,-4.771 0.474,-4.771 c -0.544,0 -0.946,0.237 -1.207,0.71 -0.205,0.38 -0.309,0.858 -0.309,1.436 0,0.691 0.136,1.231 0.406,1.623 0.271,0.391 0.613,0.586 1.027,0.586 0.465,0 0.832,-0.205 1.101,-0.614 0.268,-0.409 0.397,-1.036 0.385,-1.881 l -2.071,0 c 0.006,-0.327 0.072,-0.581 0.2,-0.763 0.127,-0.182 0.286,-0.273 0.476,-0.273 0.13,0 0.239,0.048 0.327,0.142 0.088,0.094 0.155,0.245 0.2,0.455"
         inkscape:connector-curvature="0" />
    </g>
    <g
       transform="matrix(6.5172131,0,0,-6.5172131,592.79307,178.67451)"
       id="g7560">
      <path
         id="path7562"
         style="fill:#ffffff;fill-opacity:1;fill-rule:nonzero;stroke:none"
         d="m 0,0 0,-0.878 -0.565,0 0,-1.68 c 0,-0.339 0.005,-0.538 0.016,-0.594 0.011,-0.056 0.036,-0.102 0.074,-0.139 0.038,-0.037 0.085,-0.055 0.14,-0.055 0.076,0 0.187,0.035 0.332,0.106 l 0.071,-0.855 c -0.193,-0.11 -0.41,-0.165 -0.653,-0.165 -0.149,0 -0.284,0.033 -0.403,0.1 -0.12,0.067 -0.208,0.153 -0.264,0.259 -0.056,0.106 -0.095,0.249 -0.116,0.429 -0.018,0.128 -0.027,0.388 -0.027,0.777 l 0,1.817 -0.379,0 0,0.878 0.379,0 0,0.828 0.83,0.643 L -0.565,0 0,0 z"
         inkscape:connector-curvature="0" />
    </g>
    <g
       transform="matrix(6.5172131,0,0,-6.5172131,602.47697,205.82589)"
       id="g7564">
      <path
         id="path7566"
         style="fill:#ffffff;fill-opacity:1;fill-rule:nonzero;stroke:none"
         d="m 0,0 -0.827,0 0,4.166 0.768,0 0,-0.592 C 0.072,3.854 0.19,4.038 0.295,4.127 0.4,4.216 0.52,4.26 0.653,4.26 0.841,4.26 1.022,4.191 1.197,4.052 L 0.941,3.091 C 0.802,3.211 0.672,3.271 0.553,3.271 0.437,3.271 0.339,3.229 0.259,3.144 0.178,3.059 0.115,2.906 0.069,2.683 0.023,2.461 0,1.996 0,1.287 L 0,0 z"
         inkscape:connector-curvature="0" />
    </g>
    <g
       transform="matrix(6.5172131,0,0,-6.5172131,617.65947,192.25054)"
       id="g7568">
      <path
         id="path7570"
         style="fill:#ffffff;fill-opacity:1;fill-rule:nonzero;stroke:none"
         d="m 0,0 c 0,-0.413 0.074,-0.729 0.221,-0.949 0.147,-0.22 0.328,-0.33 0.544,-0.33 0.216,0 0.397,0.11 0.543,0.33 0.146,0.22 0.219,0.538 0.219,0.957 0,0.408 -0.073,0.721 -0.219,0.941 -0.146,0.22 -0.327,0.33 -0.543,0.33 -0.216,0 -0.397,-0.11 -0.544,-0.33 C 0.074,0.729 0,0.413 0,0 m -0.847,0.059 c 0,0.366 0.068,0.72 0.203,1.063 0.135,0.342 0.327,0.604 0.575,0.785 0.248,0.18 0.525,0.27 0.831,0.27 0.473,0 0.861,-0.204 1.162,-0.614 C 2.227,1.154 2.377,0.637 2.377,0.012 2.377,-0.619 2.225,-1.141 1.92,-1.555 1.615,-1.97 1.231,-2.177 0.768,-2.177 c -0.286,0 -0.56,0.086 -0.819,0.259 -0.26,0.172 -0.458,0.425 -0.593,0.759 -0.135,0.333 -0.203,0.739 -0.203,1.218"
         inkscape:connector-curvature="0" />
    </g>
    <g
       transform="matrix(1.25,0,0,-1.25,487.79143,309.36516)"
       id="g16578"
       style="fill:#000000;fill-opacity:0">
      <g
         id="g16571"
         transform="translate(-831.16575,-490.57207)"
         style="fill:#000000;fill-opacity:0">
        <path
           d="m 827.27755,489.34007 6.151,0 0,8.291 -6.151,0 0,-8.291 z"
           style="fill:#000000;fill-opacity:0;fill-rule:nonzero;stroke:none"
           id="path7760"
           inkscape:connector-curvature="0" />
      </g>
      <path
         id="path7788"
         style="fill:#000000;fill-opacity:0;fill-rule:nonzero;stroke:none"
         d="m 0,0 -1.103,0 0,4.154 C -1.505,3.778 -1.98,3.499 -2.526,3.319 l 0,1 c 0.287,0.094 0.599,0.273 0.937,0.535 0.337,0.263 0.568,0.57 0.694,0.92 L 0,5.774 0,0 z"
         inkscape:connector-curvature="0" />
    </g>
  </g>
</svg>
