<?xml version="1.0" encoding="utf-8"?>

<!DOCTYPE svg PUBLIC "-//W3C//DTD SVG 1.0//EN"    "http://www.w3.org/TR/2001/REC-SVG-20010904/DTD/svg10.dtd">

<svg  
xmlns="http://www.w3.org/2000/svg" 
xmlns:xlink="http://www.w3.org/1999/xlink" 
width="579.844" 
height="580.85" 
viewBox="0 0 579.844 580.85" 
style="overflow:visible;enable-background:new 0 0 579.844 580.85"
xml:space="preserve"
>

<g id="Ebene_1">
  <path d="M64.952,0.064C23.374,0.064,0,21.56,0,65.482v452.774c0,41.083,21.014,62.594,62.559,62.594h454.692
  	c41.546,0,62.593-20.44,62.593-62.594V65.482c0-42.851-21.047-65.418-63.897-65.418C515.947,0.064,64.809-0.08,64.952,0.064z"/>
  <path style="fill:#FFFFFF;" d="M451.079,151.297c-4.792-23.962-20.128-33.547-43.132-43.132
  	c-22.679-9.45-77.023-20.754-117.128-21.072c-40.104,0.317-94.449,11.622-117.128,21.072
  	c-23.004,9.585-38.34,19.17-43.132,43.132l-17.252,132.841v183.045h29.712v28.705c0,35,51.218,35,51.218,0v-28.705h94.557h0.3
  	h98.307v28.705c0,35,51.218,35,51.218,0v-28.705h29.712V284.137L451.079,151.297z M217.782,120.624h71.311h74.761
  	c14.378,0,14.378,21.566,0,21.566h-74.936h-71.136C203.405,142.191,203.405,120.624,217.782,120.624z M168.649,409.801
  	c-13.568,0-24.568-11.002-24.568-24.57c0-13.568,11-24.57,24.568-24.57s24.569,11.002,24.569,24.57
  	C193.218,398.799,182.217,409.801,168.649,409.801z M289.094,298.137H158.772c-12.759,0-15.431-9.167-14.178-18.402
  	l13.428-96.348c1.844-11.706,5.812-19.423,21-19.423h109.897h113.697c15.188,0,19.156,7.717,21,19.423l13.428,96.348
  	c1.253,9.235-1.419,18.402-14.178,18.402H289.094z M412.989,409.801c-13.568,0-24.569-11.002-24.569-24.57
  	c0-13.568,11.001-24.57,24.569-24.57c13.568,0,24.568,11.002,24.568,24.57C437.557,398.799,426.557,409.801,412.989,409.801z"/>
  </g>

</svg>
