<svg xmlns="http://www.w3.org/2000/svg" xmlns:xlink="http://www.w3.org/1999/xlink" version="1.1" id="Layer_1" x="0px" y="0px" width="100px" height="100px" viewBox="0 0 100 100" enable-background="new 0 0 100 100" xml:space="preserve">
<g>
	<polygon points="77.5,55 77.5,45 17.5,45 17.5,75 35.208,75 25.972,96.846 30.576,98.794 40.637,75 44.377,75 44.377,100    49.377,100 49.377,75 53.682,75 64.443,98.848 69.004,96.792 59.17,75 77.5,75 77.5,65 92.5,72.5 92.5,47.5  "/>
	<path d="M72.5,40c11.045,0,20-8.96,20-20c0-11.05-8.955-20-20-20s-20,8.95-20,20C52.5,31.04,61.455,40,72.5,40z M72.588,31.855   c-0.645,1.973-2.754,3.047-4.727,2.407s-3.047-2.759-2.402-4.727c0.635-1.968,2.754-3.047,4.717-2.407   C72.148,27.769,73.223,29.883,72.588,31.855z M84.629,28.813c-1.211,1.675-3.564,2.046-5.234,0.825   c-1.68-1.216-2.051-3.56-0.83-5.234s3.564-2.051,5.234-0.83C85.479,24.79,85.85,27.134,84.629,28.813z M79.395,10.347   c1.67-1.216,4.023-0.845,5.234,0.83c1.221,1.677,0.85,4.023-0.83,5.239c-1.67,1.216-4.014,0.845-5.234-0.83   C77.344,13.916,77.715,11.57,79.395,10.347z M75,20c0,1.377-1.123,2.5-2.5,2.5c-1.387,0-2.5-1.123-2.5-2.5   c0-1.387,1.113-2.5,2.5-2.5C73.877,17.5,75,18.613,75,20z M67.861,5.73c1.973-0.642,4.082,0.437,4.727,2.405   c0.635,1.975-0.439,4.087-2.412,4.727c-1.963,0.64-4.082-0.435-4.727-2.407C64.814,8.486,65.889,6.37,67.861,5.73z M61.25,16.245   c2.07,0,3.75,1.68,3.75,3.755c0,2.065-1.68,3.745-3.75,3.745S57.5,22.065,57.5,20C57.5,17.925,59.18,16.245,61.25,16.245z"/>
	<path d="M47.502,20c0-11.05-8.955-20-20.002-20c-11.045,0-20,8.95-20,20c0,11.04,8.955,20,20,20C38.547,40,47.502,31.04,47.502,20z    M39.631,28.813c-1.211,1.675-3.564,2.046-5.234,0.825c-1.677-1.216-2.051-3.56-0.83-5.234s3.564-2.051,5.234-0.83   C40.481,24.79,40.852,27.134,39.631,28.813z M34.397,10.347c1.67-1.216,4.023-0.845,5.234,0.83c1.221,1.677,0.85,4.023-0.83,5.239   c-1.67,1.216-4.014,0.845-5.234-0.83C32.346,13.916,32.72,11.57,34.397,10.347z M30,20c0,1.377-1.118,2.5-2.5,2.5S25,21.377,25,20   c0-1.387,1.118-2.5,2.5-2.5S30,18.613,30,20z M16.25,23.745c-2.07,0-3.75-1.68-3.75-3.745c0-2.075,1.68-3.755,3.75-3.755   S20,17.925,20,20C20,22.065,18.32,23.745,16.25,23.745z M22.866,5.73c1.968-0.642,4.08,0.437,4.722,2.405   c0.64,1.975-0.437,4.087-2.407,4.727c-1.968,0.64-4.084-0.435-4.727-2.407C19.819,8.486,20.891,6.37,22.866,5.73z M22.866,34.263   c-1.975-0.64-3.047-2.759-2.407-4.727c0.637-1.968,2.754-3.047,4.722-2.407c1.97,0.64,3.047,2.754,2.412,4.727   C26.946,33.828,24.834,34.902,22.866,34.263z"/>
</g>
</svg>